PathFileType	4	(X/Y/Z)	/Users/niels/Desktop/University/Third Semester/Perception and Action/Exam/Gymnastics Motion Tracking/Code for Gym Tracking/Analyzed Data/Webcam_Backflip/id5_6_trajectory_Sports2D/id5_6_trajectory_Sports2D_px_person00.trc
DataRate	CameraRate	NumFrames	NumMarkers	Units	OrigDataRate	OrigDataStartFrame	OrigNumFrames
29.77272727272727	29.77272727272727	7	22	m	29.77272727272727	115	132
Frame#	Time	Hip			RHip			RKnee			RAnkle			RBigToe			RSmallToe			RHeel			LHip			LKnee			LAnkle			LBigToe			LSmallToe			LHeel			Neck			Head			Nose			RShoulder			RElbow			RWrist			LShoulder			LElbow			LWrist		
		X1	Y1	Z1	X2	Y2	Z2	X3	Y3	Z3	X4	Y4	Z4	X5	Y5	Z5	X6	Y6	Z6	X7	Y7	Z7	X8	Y8	Z8	X9	Y9	Z9	X10	Y10	Z10	X11	Y11	Z11	X12	Y12	Z12	X13	Y13	Z13	X14	Y14	Z14	X15	Y15	Z15	X16	Y16	Z16	X17	Y17	Z17	X18	Y18	Z18	X19	Y19	Z19	X20	Y20	Z20	X21	Y21	Z21	X22	Y22	Z22
115	3.8625954198473282	1.1402713759322745	-0.6762700937726692	0.0	1.1066983893388507	-0.6787836701532858	0.0	1.1199704620430515	-0.8093590694117356	0.0	1.1284898990874839	-0.939571900315757	0.0	1.1429728958051224	-0.9850738350708201	0.0	1.1203299857519737	-0.981330517831595	0.0	1.1306536096368862	-0.9493925884639339	0.0	1.17420826050927	-0.6797331120394741	0.0	1.183564374344987	-0.8298883573834618	0.0	1.199191102964289	-0.9686243537925413	0.0	1.202719024682159	-1.0175439706159408	0.0	1.222881225024843	-1.0084666003306504	0.0	1.1943074883121418	-0.9794570275461117	0.0	1.1356822452974138	-0.4854966552079147	0.0	1.1354764754991398	-0.4051242233621604	0.0	1.1322498524201279	-0.44799287033498103	0.0	1.0824426435375678	-0.5108344669611761	0.0	1.0387710425401728	-0.5890026412111812	0.0	0.9789945698077409	-0.6478289172589081	0.0	1.1956937253177202	-0.5089910442227805	0.0	1.2485158194285162	-0.5805102930677137	0.0	1.243583945604318	-0.6345932545801057	0.0
116	3.8961832061068704	1.1406059813728167	-0.6734770570575291	0.0	1.106866831171315	-0.6753946131102814	0.0	1.1199563590402162	-0.801765594305701	0.0	1.1289247150724868	-0.9351866138450154	0.0	1.1435317870157904	-0.9821218737232603	0.0	1.1210625047643643	-0.9779146399072638	0.0	1.130464495138237	-0.9447379722666068	0.0	1.1747164224725466	-0.677607396185353	0.0	1.1815198662012127	-0.8318351959223553	0.0	1.195849459638757	-0.9753772090334353	0.0	1.1967522572740923	-1.0242390540820523	0.0	1.2173635137608596	-1.0160501236050463	0.0	1.1912307666991013	-0.9870459825757053	0.0	1.136094551031213	-0.48402933337937476	0.0	1.1353056492367177	-0.4023186218317304	0.0	1.1323853087034397	-0.4462404351996766	0.0	1.08247170828428	-0.5075890983967588	0.0	1.0319170895422938	-0.5806248789000038	0.0	0.9637970485691887	-0.6341103407416474	0.0	1.196850058581918	-0.5051731267536795	0.0	1.2538960434119508	-0.5740333260148489	0.0	1.2498638577266672	-0.6219026738943714	0.0
117	3.9297709923664126	1.1412095438293866	-0.6752374999171976	0.0	1.1076316602964067	-0.6763248270530468	0.0	1.1202227007684769	-0.7983153587390622	0.0	1.128474574859908	-0.9370189076667741	0.0	1.1431948658770237	-0.9847501288806948	0.0	1.1209817720224968	-0.9804956073607904	0.0	1.1292740441105027	-0.9465317887199722	0.0	1.1754749723318652	-0.6800416667817798	0.0	1.1797446031934227	-0.8390094791400599	0.0	1.192296082575786	-0.9871048937720516	0.0	1.1905551036998745	-1.034497312460892	0.0	1.21140140054877	-1.0274073275950573	0.0	1.1878792489325454	-0.999744761339202	0.0	1.1365806262791034	-0.4877030018181999	0.0	1.1345301885473504	-0.40430225576372886	0.0	1.1325090487858096	-0.4500460536785686	0.0	1.0825094145759537	-0.5095560741519705	0.0	1.0252565191472653	-0.5763316944206017	0.0	0.949721085588903	-0.6229857651740943	0.0	1.1980232550438976	-0.5061220087660077	0.0	1.2590984695264569	-0.5716517668021392	0.0	1.257079706811243	-0.6121195630008816	0.0
118	3.9633587786259543	1.1421240584300167	-0.681815364762496	0.0	1.1088710244552102	-0.6818223871254449	0.0	1.1205948352199884	-0.7997249087107856	0.0	1.126827934250159	-0.945127235642077	0.0	1.1414512196551805	-0.9927995230235773	0.0	1.119508083529623	-0.9889074874378181	0.0	1.126959623053459	-0.9547474825514615	0.0	1.1764933798517894	-0.6872054918785891	0.0	1.1783770076725335	-0.8512725418510154	0.0	1.188813402982504	-1.002565440230649	0.0	1.1847319946858625	-1.0466860487112508	0.0	1.2053872527325926	-1.0410137227212952	0.0	1.1844937562985494	-1.0159685655889605	0.0	1.137180713736275	-0.49664829551332446	0.0	1.1332131842832736	-0.4112991969074885	0.0	1.1324984682962187	-0.45943010647845706	0.0	1.082498143320767	-0.5170631348800028	0.0	1.0188851277235056	-0.5765321277101441	0.0	0.9372946732145514	-0.6145226299817601	0.0	1.1994318106939859	-0.5122171071910356	0.0	1.264024943792855	-0.5738445632722261	0.0	1.2647846007443047	-0.6055250932045382	0.0
119	3.9969465648854965	1.143336498137784	-0.6934072879340623	0.0	1.1103777807371067	-0.6921425263677147	0.0	1.1208941557191912	-0.8065393014855275	0.0	1.1238093023526212	-0.9590554110146509	0.0	1.1381236966771815	-1.005480613517593	0.0	1.11629972298222	-1.0023380424820738	0.0	1.123469303177935	-0.9688959908459128	0.0	1.1777451729414974	-0.6992521658374744	0.0	1.1775060495520269	-0.8682156521695584	0.0	1.1857018671718238	-1.0198116142780016	0.0	1.1798865160372307	-1.0588614882339216	0.0	1.1997402609233223	-1.0549376240891102	0.0	1.1813911763760379	-1.0333021782806517	0.0	1.137943198367414	-0.5108120052125502	0.0	1.131542713914205	-0.42347413192122846	0.0	1.132248933775175	-0.47413551929174147	0.0	1.0824367076183217	-0.5302489701465428	0.0	1.0129801308457698	-0.5816410535776765	0.0	0.9269031711324127	-0.6091241539194201	0.0	1.2012759831228805	-0.5238644090763447	0.0	1.26880802621652	-0.581365966782433	0.0	1.2724610027339882	-0.602517891546367	0.0
120	4.030534351145039	1.1447030443445834	-0.7098805303481093	0.0	1.1118632959284522	-0.7072864477175193	0.0	1.1210437957331056	-0.8187299706656274	0.0	1.119510533086804	-0.9776863016971653	0.0	1.133508861250205	-1.0213023358408606	0.0	1.111432746387294	-1.0192797011958292	0.0	1.1188972335255263	-0.9878180736421072	0.0	1.1791176781426826	-0.7160961218093448	0.0	1.1771226520287084	-0.8889810140607776	0.0	1.1831725470163394	-1.0366384362103762	0.0	1.1762736169949637	-1.0692370392974984	0.0	1.1946775428407166	-1.0673454109697829	0.0	1.17888075724693	-1.0490900900025513	0.0	1.138901328521458	-0.5296850277676477	0.0	1.129830084287273	-0.44064198554350886	0.0	1.13179303433119	-0.4934585253845536	0.0	1.0823755863172768	-0.5487724128428203	0.0	1.0077936333535769	-0.5919371359068882	0.0	0.9187958353766423	-0.6074473179026312	0.0	1.2036071232282366	-0.5411273967359373	0.0	1.2738441851698505	-0.5949277749237134	0.0	1.2796113460790877	-0.603452873165428	0.0
121	4.06412213740458	1.1459641407716055	-0.7305735520607977	0.0	1.1129823450209129	-0.7267642294929403	0.0	1.1211190460190632	-0.8354622552118657	0.0	1.114359812150085	-0.9990237264623243	0.0	1.1283434173654947	-1.0382010036937097	0.0	1.1054738623118001	-1.0376264948771428	0.0	1.1135122441157623	-1.009385736159982	0.0	1.1803907590822675	-0.7371990193118072	0.0	1.1771140033692011	-0.9122691956830594	0.0	1.1813005527855964	-1.05125790988566	0.0	1.173741260672016	-1.076770654590962	0.0	1.190228544734881	-1.0771264867126253	0.0	1.1771586989299356	-1.0613188066376125	0.0	1.140020056736151	-0.5521255711238726	0.0	1.1283978407726722	-0.46194126093264	0.0	1.1312929466136274	-0.5161187467436039	0.0	1.082354744464835	-0.5717012749589324	0.0	1.0036295932415402	-0.6074253685498703	0.0	0.9131595804404112	-0.6103008616030268	0.0	1.2063072326444553	-0.5633488917402415	0.0	1.2794725009126124	-0.6146987797378793	0.0	1.285776194640866	-0.6085653443813851	0.0
